<svg xmlns="http://www.w3.org/2000/svg"  viewBox="0 0 100 100" width="100px" height="100px" baseProfile="basic"><path d="M93,52c0-4.9174805-2.9754639-9.1484375-7.2182617-11C90.0245361,39.1484375,93,34.9174805,93,30	c0-6.6171875-5.3828125-12-12-12H23c-6.6171875,0-12,5.3828125-12,12c0,4.9174805,6.0550747,9.1484375,10.2978725,11	C17.0550747,42.8515625,11,47.0825195,11,52s6.0550747,9.1484375,10.2978725,11C17.0550747,64.8515625,11,69.0825195,11,74	c0,6.6171875,5.3828125,12,12,12h58c6.6171875,0,12-5.3828125,12-12c0-4.9174805-2.9754639-9.1484375-7.2182617-11	C90.0245361,61.1484375,93,56.9174805,93,52z" opacity=".35"/><path fill="#F2F2F2" d="M91,50c0-4.9174805-2.9754639-9.1484375-7.2182617-11C88.0245361,37.1484375,91,32.9174805,91,28	c0-6.6171875-5.3828125-12-12-12H21c-6.6171875,0-12,5.3828125-12,12c0,4.9174805,2.9754639,9.1484375,7.2182617,11	C11.9754639,40.8515625,9,45.0825195,9,50s2.9754639,9.1484375,7.2182617,11C11.9754639,62.8515625,9,67.0825195,9,72	c0,6.6171875,5.3828125,12,12,12h58c6.6171875,0,12-5.3828125,12-12c0-4.9174805-2.9754639-9.1484375-7.2182617-11	C88.0245361,59.1484375,91,54.9174805,91,50z"/><path fill="#70BFFF" stroke="#40396E" stroke-linecap="round" stroke-linejoin="round" stroke-miterlimit="10" stroke-width="3" d="M20.9999943,22.5h58.0000153C82.0375671,22.5,84.5,24.962431,84.5,27.9999943v0.0000114	C84.5,31.037569,82.0375671,33.5,79.0000076,33.5H20.9999943C17.962431,33.5,15.5,31.037569,15.5,28.0000057v-0.0000114	C15.5,24.962431,17.962431,22.5,20.9999943,22.5z"/><path fill="#70BFFF" stroke="#40396E" stroke-linecap="round" stroke-linejoin="round" stroke-miterlimit="10" stroke-width="3" d="M20.9999943,44.5h58.0000153C82.0375671,44.5,84.5,46.9624329,84.5,49.9999962v0.0000076	C84.5,53.0375671,82.0375671,55.5,79.0000076,55.5H20.9999943C17.962431,55.5,15.5,53.0375671,15.5,50.0000038v-0.0000076	C15.5,46.9624329,17.962431,44.5,20.9999943,44.5z"/><path fill="#70BFFF" stroke="#40396E" stroke-linecap="round" stroke-linejoin="round" stroke-miterlimit="10" stroke-width="3" d="M20.9999943,66.5h58.0000153C82.0375671,66.5,84.5,68.9624329,84.5,71.9999924v0.0000153	C84.5,75.0375671,82.0375671,77.5,79.0000076,77.5H20.9999943C17.962431,77.5,15.5,75.0375671,15.5,72.0000076v-0.0000153	C15.5,68.9624329,17.962431,66.5,20.9999943,66.5z"/></svg>