<svg width="24" height="24" viewBox="0 0 24 24" fill="none" xmlns="http://www.w3.org/2000/svg">
<path d="M21.3685 5.79943C22.2858 7.69292 22.1928 9.54155 21.1609 9.92846C20.1289 10.3154 18.5488 9.09406 17.6315 7.20057C16.7142 5.30708 16.8072 3.45845 17.8391 3.07154C18.8711 2.68462 20.4512 3.90594 21.3685 5.79943Z" fill="white"/>
<path d="M17.6311 7.19935C18.5484 9.09284 20.1286 10.3142 21.1605 9.92724L14.9996 13.6238C12.1996 12.1238 11.1379 8.71582 10.957 7.19935L17.5132 3.26564C17.6086 3.18178 17.7172 3.1159 17.8388 3.07031L17.5132 3.26564C16.7989 3.89349 16.8219 5.52896 17.6311 7.19935Z" fill="#D4D7E0"/>
<path d="M11.2787 15.8604C8.70158 13.7466 7.68577 10.5911 7.5 9.27755L10.9574 7.20312C11.1383 8.7196 12.2 12.1276 15 13.6276L11.2787 15.8604Z" fill="white"/>
<path d="M2.6315 16.199C3.54878 18.0925 5.12895 19.3138 6.16089 18.9269L11.2787 15.8562C8.70158 13.7425 7.68577 10.587 7.5 9.27344L2.83911 12.07C1.80716 12.4569 1.71421 14.3055 2.6315 16.199Z" fill="#D4D7E0"/>
<path d="M14.5498 21C16.639 18.1124 16.0276 15.1302 15.43 14L11.9528 16C12.8249 18.8868 11 20.8103 11 20.8103L13.5632 19.584L14.5498 21Z" fill="white"/>
<path d="M21.1609 9.92846C22.1928 9.54155 22.2858 7.69292 21.3685 5.79943C20.4512 3.90594 18.8711 2.68462 17.8391 3.07154M21.1609 9.92846C20.1289 10.3154 18.5488 9.09406 17.6315 7.20057C16.7142 5.30708 16.8072 3.45845 17.8391 3.07154M21.1609 9.92846L6.16089 18.9285C5.12895 19.3154 3.54878 18.0941 2.6315 16.2006C1.71421 14.3071 1.80716 12.4584 2.83911 12.0715L17.8391 3.07154" stroke="#141B34" stroke-width="1.5"/>
<path d="M15 13.6091C13.6383 13.0362 10.9233 10.9528 10.9574 7.20312M11.5 15.7031C10.3333 15.1464 7.9 13.0807 7.5 9.27161" stroke="#141B34" stroke-width="1.5"/>
<path d="M15.43 14C16.0276 15.1302 16.639 18.1124 14.5498 21L13.5632 19.584L11 20.8103C11 20.8103 12.8249 18.8868 11.9528 16" stroke="#141B34" stroke-width="1.5" stroke-linecap="round" stroke-linejoin="round"/>
</svg>
