<svg width="24" height="24" viewBox="0 0 24 24" fill="none" xmlns="http://www.w3.org/2000/svg">
<path d="M2.5 12C2.5 7.52166 2.5 5.28249 3.89124 3.89124C5.28249 2.5 7.52166 2.5 12 2.5C16.4783 2.5 18.7175 2.5 20.1088 3.89124C21.5 5.28249 21.5 7.52166 21.5 12C21.5 16.4783 21.5 18.7175 20.1088 20.1088C18.7175 21.5 16.4783 21.5 12 21.5C7.52166 21.5 5.28249 21.5 3.89124 20.1088C2.5 18.7175 2.5 16.4783 2.5 12Z" fill="#D4D7E0"/>
<path d="M7 18L7 16" stroke="#141B34" stroke-width="1.5" stroke-linecap="round"/>
<path d="M12 18L12 15" stroke="#141B34" stroke-width="1.5" stroke-linecap="round"/>
<path d="M17 18L17 13" stroke="#141B34" stroke-width="1.5" stroke-linecap="round"/>
<path d="M6 10.75C5.58579 10.75 5.25 11.0858 5.25 11.5C5.25 11.9142 5.58579 12.25 6 12.25V10.75ZM16.6512 6.8721C16.8567 6.51247 16.7317 6.05433 16.3721 5.84882C16.0125 5.64331 15.5543 5.76826 15.3488 6.1279L16.6512 6.8721ZM13.8779 5.55478C13.4692 5.62219 13.1926 6.00815 13.26 6.41684C13.3274 6.82553 13.7134 7.10219 14.1221 7.03478L13.8779 5.55478ZM15.2676 6.08568L15.1456 5.34568L15.2676 6.08568ZM16.6819 6.88953L15.9609 7.09609L16.6819 6.88953ZM16.279 8.20656C16.3931 8.60475 16.8084 8.83507 17.2066 8.72099C17.6048 8.60692 17.8351 8.19164 17.721 7.79344L16.279 8.20656ZM16.2741 6.07154L16.6448 5.41951L16.6447 5.41951L16.2741 6.07154ZM6 12.25C10.6742 12.25 14.4764 10.678 16.6512 6.8721L15.3488 6.1279C13.5236 9.32203 10.3258 10.75 6 10.75V12.25ZM14.1221 7.03478L15.3897 6.82568L15.1456 5.34568L13.8779 5.55478L14.1221 7.03478ZM15.9609 7.09609L16.279 8.20656L17.721 7.79344L17.4029 6.68297L15.9609 7.09609ZM15.3897 6.82568C15.6742 6.77874 15.8228 6.75549 15.9273 6.75072C16.0142 6.74675 15.9719 6.76242 15.9035 6.72357L16.6447 5.41951C16.3693 5.26294 16.0902 5.24172 15.8589 5.25228C15.6451 5.26203 15.394 5.30471 15.1456 5.34568L15.3897 6.82568ZM17.4029 6.68297C17.3421 6.47103 17.2761 6.2338 17.1891 6.04105C17.0889 5.81911 16.9304 5.58186 16.6448 5.41951L15.9035 6.72357C15.8732 6.70635 15.8458 6.68248 15.8263 6.6588C15.8103 6.63917 15.8103 6.63246 15.8219 6.65818C15.8342 6.68528 15.8513 6.73033 15.8759 6.80783C15.9004 6.88523 15.9266 6.97645 15.9609 7.09609L17.4029 6.68297Z" fill="#141B34"/>
<path d="M2.5 12C2.5 7.52166 2.5 5.28249 3.89124 3.89124C5.28249 2.5 7.52166 2.5 12 2.5C16.4783 2.5 18.7175 2.5 20.1088 3.89124C21.5 5.28249 21.5 7.52166 21.5 12C21.5 16.4783 21.5 18.7175 20.1088 20.1088C18.7175 21.5 16.4783 21.5 12 21.5C7.52166 21.5 5.28249 21.5 3.89124 20.1088C2.5 18.7175 2.5 16.4783 2.5 12Z" stroke="#141B34" stroke-width="1.5"/>
</svg>
